{
	"patcher" : 	{
		"fileversion" : 1,
		"appversion" : 		{
			"major" : 5,
			"minor" : 1,
			"revision" : 9
		}
,
		"rect" : [ 0.0, 44.0, 1109.0, 817.0 ],
		"bglocked" : 0,
		"defrect" : [ 0.0, 44.0, 1109.0, 817.0 ],
		"openrect" : [ 0.0, 0.0, 0.0, 0.0 ],
		"openinpresentation" : 0,
		"default_fontsize" : 12.0,
		"default_fontface" : 0,
		"default_fontname" : "Arial",
		"gridonopen" : 0,
		"gridsize" : [ 15.0, 15.0 ],
		"gridsnaponopen" : 0,
		"toolbarvisible" : 1,
		"boxanimatetime" : 200,
		"imprint" : 0,
		"enablehscroll" : 1,
		"enablevscroll" : 1,
		"devicewidth" : 0.0,
		"boxes" : [ 			{
				"box" : 				{
					"args" : [ "myCues" ],
					"id" : "obj-7",
					"maxclass" : "bpatcher",
					"name" : "jmod.cueManager.maxpat",
					"numinlets" : 1,
					"numoutlets" : 1,
					"outlettype" : [ "" ],
					"patching_rect" : [ 375.0, 150.0, 300.0, 70.0 ],
					"presentation_rect" : [ 0.0, 0.0, 300.0, 70.0 ]
				}

			}
, 			{
				"box" : 				{
					"args" : [ "myMouse" ],
					"id" : "obj-6",
					"maxclass" : "bpatcher",
					"name" : "jmod.mouse.maxpat",
					"numinlets" : 1,
					"numoutlets" : 1,
					"outlettype" : [ "" ],
					"patching_rect" : [ 375.0, 285.0, 150.0, 70.0 ],
					"presentation_rect" : [ 0.0, 0.0, 150.0, 70.0 ]
				}

			}
, 			{
				"box" : 				{
					"args" : [ "myMapper" ],
					"id" : "obj-5",
					"maxclass" : "bpatcher",
					"name" : "jmod.mapperContinuous.maxpat",
					"numinlets" : 1,
					"numoutlets" : 1,
					"outlettype" : [ "" ],
					"patching_rect" : [ 375.0, 360.0, 600.0, 70.0 ],
					"presentation_rect" : [ 0.0, 0.0, 600.0, 70.0 ]
				}

			}
, 			{
				"box" : 				{
					"args" : [ "myAudioOut" ],
					"id" : "obj-4",
					"maxclass" : "bpatcher",
					"name" : "jmod.output~.maxpat",
					"numinlets" : 3,
					"numoutlets" : 1,
					"outlettype" : [ "" ],
					"patching_rect" : [ 60.0, 450.0, 300.0, 140.0 ],
					"presentation_rect" : [ 0.0, 0.0, 300.0, 140.0 ]
				}

			}
, 			{
				"box" : 				{
					"args" : [ "myDegrader" ],
					"id" : "obj-3",
					"maxclass" : "bpatcher",
					"name" : "jmod.degrade~.maxpat",
					"numinlets" : 3,
					"numoutlets" : 3,
					"outlettype" : [ "", "signal", "signal" ],
					"patching_rect" : [ 60.0, 375.0, 300.0, 70.0 ],
					"presentation_rect" : [ 0.0, 0.0, 300.0, 70.0 ]
				}

			}
, 			{
				"box" : 				{
					"args" : [ "myEQ" ],
					"id" : "obj-2",
					"maxclass" : "bpatcher",
					"name" : "jmod.equalizer~.maxpat",
					"numinlets" : 3,
					"numoutlets" : 3,
					"outlettype" : [ "", "signal", "signal" ],
					"patching_rect" : [ 60.0, 225.0, 300.0, 140.0 ],
					"presentation_rect" : [ 64.0, 49.0, 300.0, 140.0 ]
				}

			}
, 			{
				"box" : 				{
					"args" : [ "myAudioPlayer" ],
					"id" : "obj-1",
					"maxclass" : "bpatcher",
					"name" : "jmod.input~.maxpat",
					"numinlets" : 1,
					"numoutlets" : 3,
					"outlettype" : [ "", "signal", "signal" ],
					"patching_rect" : [ 60.0, 75.0, 300.0, 140.0 ],
					"presentation_rect" : [ 0.0, 0.0, 300.0, 140.0 ]
				}

			}
 ],
		"lines" : [ 			{
				"patchline" : 				{
					"destination" : [ "obj-2", 2 ],
					"hidden" : 0,
					"midpoints" : [  ],
					"source" : [ "obj-1", 2 ]
				}

			}
, 			{
				"patchline" : 				{
					"destination" : [ "obj-2", 1 ],
					"hidden" : 0,
					"midpoints" : [  ],
					"source" : [ "obj-1", 1 ]
				}

			}
, 			{
				"patchline" : 				{
					"destination" : [ "obj-3", 2 ],
					"hidden" : 0,
					"midpoints" : [  ],
					"source" : [ "obj-2", 2 ]
				}

			}
, 			{
				"patchline" : 				{
					"destination" : [ "obj-3", 1 ],
					"hidden" : 0,
					"midpoints" : [  ],
					"source" : [ "obj-2", 1 ]
				}

			}
, 			{
				"patchline" : 				{
					"destination" : [ "obj-4", 2 ],
					"hidden" : 0,
					"midpoints" : [  ],
					"source" : [ "obj-3", 2 ]
				}

			}
, 			{
				"patchline" : 				{
					"destination" : [ "obj-4", 1 ],
					"hidden" : 0,
					"midpoints" : [  ],
					"source" : [ "obj-3", 1 ]
				}

			}
 ]
	}

}
